<svg xmlns="http://www.w3.org/2000/svg" xmlns:xlink="http://www.w3.org/1999/xlink" width="602" height="158" font-size="8.000000pt" font-family="Arial" fill="#000000"><a href="file://C:/Users/Usuario/AppData/Local/Temp/SortSite13628/PowerMapper/Map6/map.SEO.htm" class="viewsource" data-col="0" data-line="0" data-pageid="1" rel="nofollow" target="_top"><title>SEO and search guideline report</title><polygon points="240.500000,64.500000 240.500000,24.500000 288.500000,48.500000 288.500000,88.500000 " fill="#ffaa22" stroke="#000000" stroke-width="1"/><polygon points="336.500000,64.500000 336.500000,24.500000 288.500000,48.500000 288.500000,88.500000 " fill="#cc7700" stroke="#000000" stroke-width="1"/><polygon points="240.500000,24.500000 288.500000,0.500000 336.500000,24.500000 288.500000,48.500000 " fill="#ffdd55" stroke="#000000" stroke-width="1"/><polygon points="240.500000,64.500000 240.500000,52.500000 288.500000,76.500000 288.500000,88.500000 " fill="#dd2222" stroke="#000000" stroke-width="1"/><polygon points="336.500000,64.500000 336.500000,52.500000 288.500000,76.500000 288.500000,88.500000 " fill="#aa0000" stroke="#000000" stroke-width="1"/></a><a href="file://C:/Users/Usuario/AppData/Local/Temp/SortSite13628/PowerMapper/Map6/Report/report-min-20240912.css" class="viewsource" data-col="0" data-line="0" data-pageid="2" rel="nofollow" target="_top"><title>report-min-20240912</title><polygon points="328.500000,84.500000 328.500000,84.500000 352.500000,96.500000 352.500000,96.500000 " fill="#999999" stroke="#000000" stroke-width="1"/><polygon points="376.500000,84.500000 376.500000,84.500000 352.500000,96.500000 352.500000,96.500000 " fill="#666666" stroke="#000000" stroke-width="1"/><polygon points="328.500000,84.500000 352.500000,72.500000 376.500000,84.500000 352.500000,96.500000 " fill="#cccccc" stroke="#000000" stroke-width="1"/></a><a href="file://C:/Users/Usuario/AppData/Local/Temp/SortSite13628/PowerMapper/Map6/Report/report-min-20250221.js" class="viewsource" data-col="0" data-line="0" data-pageid="23" rel="nofollow" target="_top"><title>report-min-20250221</title><polygon points="200.500000,84.500000 200.500000,84.500000 224.500000,96.500000 224.500000,96.500000 " fill="#999999" stroke="#000000" stroke-width="1"/><polygon points="248.500000,84.500000 248.500000,84.500000 224.500000,96.500000 224.500000,96.500000 " fill="#666666" stroke="#000000" stroke-width="1"/><polygon points="200.500000,84.500000 224.500000,72.500000 248.500000,84.500000 224.500000,96.500000 " fill="#cccccc" stroke="#000000" stroke-width="1"/></a><a href="file://C:/Users/Usuario/AppData/Local/Temp/SortSite13628/PowerMapper/Map6/Report/bench-worse.svg" class="viewsource" data-col="0" data-line="0" data-pageid="24" rel="nofollow" target="_top"><title>bench-worse</title><polygon points="232.500000,100.500000 232.500000,100.500000 256.500000,112.500000 256.500000,112.500000 " fill="#999999" stroke="#000000" stroke-width="1"/><polygon points="280.500000,100.500000 280.500000,100.500000 256.500000,112.500000 256.500000,112.500000 " fill="#666666" stroke="#000000" stroke-width="1"/><polygon points="232.500000,100.500000 256.500000,88.500000 280.500000,100.500000 256.500000,112.500000 " fill="#cccccc" stroke="#000000" stroke-width="1"/></a><a href="file://C:/Users/Usuario/AppData/Local/Temp/SortSite13628/PowerMapper/Map6/Report/bench-better.svg" class="viewsource" data-col="0" data-line="0" data-pageid="25" rel="nofollow" target="_top"><title>bench-better</title><polygon points="296.500000,100.500000 296.500000,100.500000 320.500000,112.500000 320.500000,112.500000 " fill="#999999" stroke="#000000" stroke-width="1"/><polygon points="344.500000,100.500000 344.500000,100.500000 320.500000,112.500000 320.500000,112.500000 " fill="#666666" stroke="#000000" stroke-width="1"/><polygon points="296.500000,100.500000 320.500000,88.500000 344.500000,100.500000 320.500000,112.500000 " fill="#cccccc" stroke="#000000" stroke-width="1"/></a><a href="file://C:/Users/Usuario/AppData/Local/Temp/SortSite13628/PowerMapper/Map6/Report/p1.svg" class="viewsource" data-col="0" data-line="0" data-pageid="27" rel="nofollow" target="_top"><title>p1</title><polygon points="168.500000,100.500000 168.500000,100.500000 192.500000,112.500000 192.500000,112.500000 " fill="#999999" stroke="#000000" stroke-width="1"/><polygon points="216.500000,100.500000 216.500000,100.500000 192.500000,112.500000 192.500000,112.500000 " fill="#666666" stroke="#000000" stroke-width="1"/><polygon points="168.500000,100.500000 192.500000,88.500000 216.500000,100.500000 192.500000,112.500000 " fill="#cccccc" stroke="#000000" stroke-width="1"/></a><a href="file://C:/Users/Usuario/AppData/Local/Temp/SortSite13628/PowerMapper/Map6/Report/p3.svg" class="viewsource" data-col="0" data-line="0" data-pageid="29" rel="nofollow" target="_top"><title>p3</title><polygon points="360.500000,100.500000 360.500000,100.500000 384.500000,112.500000 384.500000,112.500000 " fill="#999999" stroke="#000000" stroke-width="1"/><polygon points="408.500000,100.500000 408.500000,100.500000 384.500000,112.500000 384.500000,112.500000 " fill="#666666" stroke="#000000" stroke-width="1"/><polygon points="360.500000,100.500000 384.500000,88.500000 408.500000,100.500000 384.500000,112.500000 " fill="#cccccc" stroke="#000000" stroke-width="1"/></a><a href="file://C:/Users/Usuario/AppData/Local/Temp/SortSite13628/PowerMapper/Map6/Report/chevron-down.svg" class="viewsource" data-col="0" data-line="0" data-pageid="26" rel="nofollow" target="_top"><title>chevron-down</title><polygon points="264.500000,116.500000 264.500000,116.500000 288.500000,128.500000 288.500000,128.500000 " fill="#999999" stroke="#000000" stroke-width="1"/><polygon points="312.500000,116.500000 312.500000,116.500000 288.500000,128.500000 288.500000,128.500000 " fill="#666666" stroke="#000000" stroke-width="1"/><polygon points="264.500000,116.500000 288.500000,104.500000 312.500000,116.500000 288.500000,128.500000 " fill="#cccccc" stroke="#000000" stroke-width="1"/></a><a href="file://C:/Users/Usuario/AppData/Local/Temp/SortSite13628/PowerMapper/Map6/Report/p2.svg" class="viewsource" data-col="0" data-line="0" data-pageid="28" rel="nofollow" target="_top"><title>p2</title><polygon points="200.500000,116.500000 200.500000,116.500000 224.500000,128.500000 224.500000,128.500000 " fill="#999999" stroke="#000000" stroke-width="1"/><polygon points="248.500000,116.500000 248.500000,116.500000 224.500000,128.500000 224.500000,128.500000 " fill="#666666" stroke="#000000" stroke-width="1"/><polygon points="200.500000,116.500000 224.500000,104.500000 248.500000,116.500000 224.500000,128.500000 " fill="#cccccc" stroke="#000000" stroke-width="1"/></a><a href="file://C:/Users/Usuario/AppData/Local/Temp/SortSite13628/PowerMapper/Map6/Report/p4.svg" class="viewsource" data-col="0" data-line="0" data-pageid="30" rel="nofollow" target="_top"><title>p4</title><polygon points="328.500000,116.500000 328.500000,116.500000 352.500000,128.500000 352.500000,128.500000 " fill="#999999" stroke="#000000" stroke-width="1"/><polygon points="376.500000,116.500000 376.500000,116.500000 352.500000,128.500000 352.500000,128.500000 " fill="#666666" stroke="#000000" stroke-width="1"/><polygon points="328.500000,116.500000 352.500000,104.500000 376.500000,116.500000 352.500000,128.500000 " fill="#cccccc" stroke="#000000" stroke-width="1"/></a><a href="file://C:/Users/Usuario/AppData/Local/Temp/SortSite13628/PowerMapper/Map6/map.BUG.htm" class="viewsource" data-col="0" data-line="0" data-pageid="7" rel="nofollow" target="_top"><title>Browser compatibility report</title><polygon points="136.500000,116.500000 136.500000,116.500000 160.500000,128.500000 160.500000,128.500000 " fill="#999999" stroke="#000000" stroke-width="1"/><polygon points="184.500000,116.500000 184.500000,116.500000 160.500000,128.500000 160.500000,128.500000 " fill="#666666" stroke="#000000" stroke-width="1"/><polygon points="136.500000,116.500000 160.500000,104.500000 184.500000,116.500000 160.500000,128.500000 " fill="#cccccc" stroke="#000000" stroke-width="1"/></a><a href="file://C:/Users/Usuario/AppData/Local/Temp/SortSite13628/PowerMapper/Map6/Report/p6.svg" class="viewsource" data-col="0" data-line="0" data-pageid="31" rel="nofollow" target="_top"><title>p6</title><polygon points="232.500000,132.500000 232.500000,132.500000 256.500000,144.500000 256.500000,144.500000 " fill="#999999" stroke="#000000" stroke-width="1"/><polygon points="280.500000,132.500000 280.500000,132.500000 256.500000,144.500000 256.500000,144.500000 " fill="#666666" stroke="#000000" stroke-width="1"/><polygon points="232.500000,132.500000 256.500000,120.500000 280.500000,132.500000 256.500000,144.500000 " fill="#cccccc" stroke="#000000" stroke-width="1"/></a><a href="file://C:/Users/Usuario/AppData/Local/Temp/SortSite13628/PowerMapper/Map6/map.htm" class="viewsource" data-col="0" data-line="0" data-pageid="3" rel="nofollow" target="_top"><title>Site quality report for https</title><polygon points="296.500000,132.500000 296.500000,128.500000 320.500000,140.500000 320.500000,144.500000 " fill="#dd2222" stroke="#000000" stroke-width="1"/><polygon points="344.500000,132.500000 344.500000,128.500000 320.500000,140.500000 320.500000,144.500000 " fill="#aa0000" stroke="#000000" stroke-width="1"/><polygon points="296.500000,128.500000 320.500000,116.500000 344.500000,128.500000 320.500000,140.500000 " fill="#ff5555" stroke="#000000" stroke-width="1"/></a><a href="file://C:/Users/Usuario/AppData/Local/Temp/SortSite13628/PowerMapper/Map6/map.ERR.htm" class="viewsource" data-col="0" data-line="0" data-pageid="4" rel="nofollow" target="_top"><title>Broken link report for https</title><polygon points="424.500000,132.500000 424.500000,128.500000 448.500000,140.500000 448.500000,144.500000 " fill="#dd2222" stroke="#000000" stroke-width="1"/><polygon points="472.500000,132.500000 472.500000,128.500000 448.500000,140.500000 448.500000,144.500000 " fill="#aa0000" stroke="#000000" stroke-width="1"/><polygon points="424.500000,128.500000 448.500000,116.500000 472.500000,128.500000 448.500000,140.500000 " fill="#ff5555" stroke="#000000" stroke-width="1"/></a><a href="file://C:/Users/Usuario/AppData/Local/Temp/SortSite13628/PowerMapper/Map6/map.MAP.htm" class="viewsource" data-col="0" data-line="0" data-pageid="32" rel="nofollow" target="_top"><title>Site map for https</title><polygon points="276.500000,142.500000 276.500000,138.500000 288.500000,144.500000 288.500000,148.500000 " fill="#dd2222" stroke="#000000" stroke-width="1"/><polygon points="300.500000,142.500000 300.500000,138.500000 288.500000,144.500000 288.500000,148.500000 " fill="#aa0000" stroke="#000000" stroke-width="1"/><polygon points="276.500000,138.500000 288.500000,132.500000 300.500000,138.500000 288.500000,144.500000 " fill="#ff5555" stroke="#000000" stroke-width="1"/></a><a href="file://C:/Users/Usuario/AppData/Local/Temp/SortSite13628/PowerMapper/Map6/map.RUL.htm" class="viewsource" data-col="0" data-line="0" data-pageid="33" rel="nofollow" target="_top"><title>Summary of tests run for https</title><polygon points="340.500000,142.500000 340.500000,142.500000 352.500000,148.500000 352.500000,148.500000 " fill="#999999" stroke="#000000" stroke-width="1"/><polygon points="364.500000,142.500000 364.500000,142.500000 352.500000,148.500000 352.500000,148.500000 " fill="#666666" stroke="#000000" stroke-width="1"/><polygon points="340.500000,142.500000 352.500000,136.500000 364.500000,142.500000 352.500000,148.500000 " fill="#cccccc" stroke="#000000" stroke-width="1"/></a><text clip-path="url(#cp-1)" x="240" y="23" stroke="#ffffff" stroke-width="2" paint-order="stroke" stroke-opacity="0.75"><tspan x="288" text-anchor="middle">SEO and search </tspan></text><clipPath id="cp-1"><rect x="239" y="11" width="97" height="26"/></clipPath></svg>
